<svg width="17" height="16" viewBox="0 0 17 16" fill="none" xmlns="http://www.w3.org/2000/svg">
<path d="M10.666 3.16683H12.666C13.0342 3.16683 13.3327 3.46531 13.3327 3.8335V13.5002C13.3327 13.8684 13.0342 14.1668 12.666 14.1668H4.33268C3.96449 14.1668 3.66602 13.8684 3.66602 13.5002V3.8335C3.66602 3.46531 3.96449 3.16683 4.33268 3.16683H6.33268M6.99935 4.8335H9.99935C10.3675 4.8335 10.666 4.53502 10.666 4.16683V2.50016C10.666 2.13197 10.3675 1.8335 9.99935 1.8335H6.99935C6.63116 1.8335 6.33268 2.13197 6.33268 2.50016V4.16683C6.33268 4.53502 6.63116 4.8335 6.99935 4.8335Z" stroke="#9DA4B2" stroke-width="1.5" stroke-linecap="square" stroke-linejoin="round"/>
</svg>
