<svg width="17" height="16" viewBox="0 0 17 16" fill="none" xmlns="http://www.w3.org/2000/svg">
<path d="M8.19638 10.4895C6.80299 10.1004 5.55351 9.80142 4.16602 10.3769V14.1662C4.16602 14.4424 3.94216 14.6662 3.66602 14.6662C3.38987 14.6662 3.16602 14.4424 3.16602 14.1662V2.93232C3.16602 2.49707 3.41377 2.06184 3.86098 1.88447C5.51851 1.22709 7.0093 1.58574 8.34829 1.95676C8.43611 1.98109 8.52316 2.00541 8.60952 2.02954C9.87493 2.38307 10.9928 2.69538 12.2088 2.4007C12.9239 2.22742 13.8327 2.69546 13.8327 3.59101V9.64088C13.8327 10.0761 13.5849 10.5114 13.1377 10.6887C11.3818 11.3851 9.80184 10.9409 8.39695 10.5458C8.32969 10.5269 8.26283 10.5081 8.19638 10.4895Z" fill="#2F72E2"/>
</svg>
