<svg width="17" height="17" viewBox="0 0 17 17" fill="none" xmlns="http://www.w3.org/2000/svg">
<path d="M4.29374 14.0431L3.5453 14.0914L4.29374 14.0431ZM12.7076 14.0431L13.456 14.0914V14.0914L12.7076 14.0431ZM2.33398 3.5835C1.91977 3.5835 1.58398 3.91928 1.58398 4.3335C1.58398 4.74771 1.91977 5.0835 2.33398 5.0835V3.5835ZM14.6673 5.0835C15.0815 5.0835 15.4173 4.74771 15.4173 4.3335C15.4173 3.91928 15.0815 3.5835 14.6673 3.5835V5.0835ZM7.75065 7.66683C7.75065 7.25262 7.41486 6.91683 7.00065 6.91683C6.58644 6.91683 6.25065 7.25262 6.25065 7.66683H7.75065ZM6.25065 11.3335C6.25065 11.7477 6.58644 12.0835 7.00065 12.0835C7.41486 12.0835 7.75065 11.7477 7.75065 11.3335H6.25065ZM10.7507 7.66683C10.7507 7.25262 10.4149 6.91683 10.0007 6.91683C9.58644 6.91683 9.25065 7.25262 9.25065 7.66683H10.7507ZM9.25065 11.3335C9.25065 11.7477 9.58644 12.0835 10.0007 12.0835C10.4149 12.0835 10.7507 11.7477 10.7507 11.3335H9.25065ZM10.357 4.52044C10.4602 4.92158 10.8691 5.16307 11.2703 5.05982C11.6714 4.95658 11.9129 4.54769 11.8096 4.14655L10.357 4.52044ZM3.66732 4.3335L2.91887 4.38178L3.5453 14.0914L4.29374 14.0431L5.04219 13.9948L4.41576 4.28521L3.66732 4.3335ZM4.95903 14.6668V15.4168H12.0423V14.6668V13.9168H4.95903V14.6668ZM12.7076 14.0431L13.456 14.0914L14.0824 4.38178L13.334 4.3335L12.5855 4.28521L11.9591 13.9948L12.7076 14.0431ZM13.334 4.3335V3.5835H3.66732V4.3335V5.0835H13.334V4.3335ZM2.33398 4.3335V5.0835H3.66732V4.3335V3.5835H2.33398V4.3335ZM13.334 4.3335V5.0835H14.6673V4.3335V3.5835H13.334V4.3335ZM12.0423 14.6668V15.4168C12.7893 15.4168 13.4079 14.8368 13.456 14.0914L12.7076 14.0431L11.9591 13.9948C11.9619 13.9509 11.9983 13.9168 12.0423 13.9168V14.6668ZM4.29374 14.0431L3.5453 14.0914C3.59339 14.8368 4.21203 15.4168 4.95903 15.4168V14.6668V13.9168C5.00297 13.9168 5.03936 13.9509 5.04219 13.9948L4.29374 14.0431ZM7.00065 7.66683H6.25065V11.3335H7.00065H7.75065V7.66683H7.00065ZM10.0007 7.66683H9.25065V11.3335H10.0007H10.7507V7.66683H10.0007ZM8.50066 2.3335V3.0835C9.39273 3.0835 10.1442 3.69361 10.357 4.52044L11.0833 4.3335L11.8096 4.14655C11.4304 2.67308 10.0937 1.5835 8.50066 1.5835V2.3335ZM5.91801 4.3335L6.64434 4.52044C6.85715 3.69361 7.6086 3.0835 8.50066 3.0835V2.3335V1.5835C6.90761 1.5835 5.57093 2.67308 5.19168 4.14655L5.91801 4.3335Z" fill="#EF494F"/>
</svg>
